<svg width="220" height="220" viewBox="0 0 220 220" fill="none" xmlns="http://www.w3.org/2000/svg">
<g clip-path="url(#clip0_1_3)">
<path d="M1.59526e-07 2.28882e-05H220" stroke="black"/>
<path d="M1.59526e-07 2.28882e-05V220" stroke="black"/>
<path d="M15.4997 4.50002H96.5297C102.053 4.50002 106.5 8.97717 106.5 14.5L106.5 50.4196C106.5 53.6124 104.975 56.6132 102.397 58.4959L77.1766 76.9107C75.8087 77.9095 75 79.5014 75 81.1951C75 84.1249 77.3751 86.5 80.3049 86.5H96.5C102.023 86.5 106.5 90.9772 106.5 96.5V97C106.5 102.523 102.023 107 96.5 107H15.5C9.97715 107 5.5 102.523 5.5 97L5.50001 14.5C5.50001 8.97717 9.97687 4.50002 15.4997 4.50002Z" fill="#6750B8"/>
<path d="M205 116.5H125.5C119.977 116.5 115.5 120.977 115.5 126.5V159.5C115.5 165.023 119.977 169.5 125.5 169.5H134.854C138.524 169.5 141.5 172.476 141.5 176.146C141.5 177.978 140.744 179.729 139.41 180.985L118.135 201.019C116.453 202.602 115.5 204.81 115.5 207.12C115.5 211.748 119.252 215.5 123.88 215.5H206C210.971 215.5 215 211.471 215 206.5C215 201.529 210.971 197.5 206 197.5H178.777C175.862 197.5 173.5 195.138 173.5 192.223C173.5 190.802 174.074 189.44 175.091 188.447L211.984 152.443C213.913 150.561 215 147.981 215 145.286V126.5C215 120.977 210.523 116.5 205 116.5Z" fill="#60FFBA"/>
<path d="M126 5.00001H204.5C210.023 5.00001 214.5 9.47716 214.5 15V97C214.5 102.523 210.023 107 204.5 107H146.586C143.967 107 141.453 105.972 139.583 104.138L118.997 83.9401C117.08 82.0595 116 79.4872 116 76.802V15C116 9.47716 120.477 5.00001 126 5.00001Z" fill="#6750B8"/>
<path d="M6.00001 126.5V205.5C6.00001 211.023 10.4772 215.5 16 215.5H35.5C41.0229 215.5 45.5 211.023 45.5 205.5V197.45C45.5 194.716 47.7161 192.5 50.4498 192.5C51.7625 192.5 53.0215 193.022 53.9498 193.95L72.6991 212.699C74.4925 214.493 76.9248 215.5 79.461 215.5C87.4163 215.5 91.8932 206.352 87.0126 200.07L85.4337 198.038C82.1562 193.819 82.7733 187.77 86.8351 184.3L102.995 170.494C105.219 168.594 106.5 165.816 106.5 162.891V126.5C106.5 120.977 102.023 116.5 96.5 116.5H16C10.4772 116.5 6.00001 120.977 6.00001 126.5Z" fill="#6750B8"/>
</g>
<defs>
<clipPath id="clip0_1_3">
<rect width="220" height="220" fill="white" transform="translate(220 220) rotate(180)"/>
</clipPath>
</defs>
</svg>
